{"title":"Shetland S03E05 x264 RB58.mp4","uid":13614023,"size":659093295,"categoryP":"video","categoryS":"tv_shows","magnet":"?xt=urn:btih:83ebaf0cf6c8a600acc6f1d4a642c9c817d8fb77&amp;dn=Shetland+S03E05+x264+RB58.mp4&amp;tr=udp%3A%2F%2Ftracker.leechers-paradise.org%3A6969&amp;tr=udp%3A%2F%2Fzer0day.ch%3A1337&amp;tr=udp%3A%2F%2Fopen.demonii.com%3A1337&amp;tr=udp%3A%2F%2Ftracker.coppersurfer.tk%3A6969&amp;tr=udp%3A%2F%2Fexodus.desync.com%3A6969","seeders":0,"leechers":1,"uploader":"RedBaron58","files":1,"time":1455932125,"description":"Shetland S03E05 x264 mp4\r\n \nhttp://www.imdb.com/title/tt2396135/\r\n\r\nTrailer:\r\n\r\n\r\nPlease be patient My intial upload speed is limited.\r\nThank you for your kind comments and feedback on my other torrents, your feedback is welcome.\r\n\r\n\r\n\r\nAbout the Episode:\r\nBarefoot and traumatised, Tosh appears at a Glasgow police station and confides in Perez the \r\nshocking truth about what happened to her. \r\nThough struggling to deal with the disclosure, Perez resolves to continue the investigation \r\ninto the murders of Robbie Morton and Michael Thompson by tracking down assault victim \r\nKelly Paterson. Calvin Sarwar, McCall's lawyer, admits he fears reprisals from the gangster, \r\nbut nevertheless provides a valuable clue to the identity of Tosh's attacker.\r\n \r\nStarring Douglas Henshall, with Ciaran Hinds\r\n\r\n\r\nI hope you enjoy.\r\n\r\n\r\nTechnical:\r\n\r\n\r\nGeneral\r\nComplete name                            : G:Shetland S03E05 x264 RB58.mp4\r\nFormat                                   : MPEG-4\r\nFormat profile                           : Base Media\r\nCodec ID                                 : isom\r\nFile size                                : 629 MiB\r\nDuration                                 : 57mn 52s\r\nOverall bit rate                         : 1 518 Kbps\r\nWriting application                      : Lavf54.63.104\r\n\r\nVideo\r\nID                                       : 1\r\nFormat                                   : AVC\r\nFormat/Info                              : Advanced Video Codec\r\nFormat profile                           :   \r\nFormat settings, CABAC                   : Yes\r\nFormat settings, ReFrames                : 4 frames\r\nCodec ID                                 : avc1\r\nCodec ID/Info                            : Advanced Video Coding\r\nDuration                                 : 57mn 52s\r\nBit rate                                 : 1 400 Kbps\r\nWidth                                    : 832 pixels\r\nHeight                                   : 468 pixels\r\nDisplay aspect ratio                     : 16:9\r\nFrame rate mode                          : Constant\r\nFrame rate                               : 25.000 fps\r\nColor space                              : YUV\r\nChroma subsampling                       : 4:2:0\r\nBit depth                                : 8 bits\r\nScan type                                : Progressive\r\nBits/(Pixel*Frame)                       : 0.144\r\nStream size                              : 579 MiB (92%)\r\nWriting library                          : x264 core 123 r2189 35cf912\r\nEncoding settings                        : cabac=1 / ref=3 / deblock=1:0:0\r\n\r\nAudio\r\nID                                       : 2\r\nFormat                                   : AAC\r\nFormat/Info                              : Advanced Audio Codec\r\nFormat profile                           : LC\r\nCodec ID                                 : 40\r\nDuration                                 : 57mn 52s\r\nBit rate mode                            : Constant\r\nBit rate                                 : 112 Kbps\r\nChannel(s)                               : 2 channels\r\nChannel positions                        : Front: L R\r\nSampling rate                            : 48.0 KHz\r\nCompression mode                         : Lossy\r\nStream size                              : 46.4 MiB (7%)","torrent":{"xt":"urn:btih:83ebaf0cf6c8a600acc6f1d4a642c9c817d8fb77","amp;dn":"Shetland+S03E05+x264+RB58.mp4","amp;tr":["udp%3A%2F%2Ftracker.leechers-paradise.org%3A6969","udp%3A%2F%2Fzer0day.ch%3A1337","udp%3A%2F%2Fopen.demonii.com%3A1337","udp%3A%2F%2Ftracker.coppersurfer.tk%3A6969","udp%3A%2F%2Fexodus.desync.com%3A6969"],"infoHash":"83ebaf0cf6c8a600acc6f1d4a642c9c817d8fb77","infoHashBuffer":{"type":"Buffer","data":[131,235,175,12,246,200,166,0,172,198,241,212,166,66,201,200,23,216,251,119]},"announce":[],"urlList":[]}}